<?xml version="1.0" encoding="UTF-8" standalone="no"?><svg height="296.1958076584507" width="439.7078565140845" xmlns="http://www.w3.org/2000/svg"><style type="text/css"><![CDATA[svg {
	font-family: Arial;
	font-size: 14px;
}

.state-rect {
    stroke: black;
    stroke-width: 1;
    fill: white;
}

.final-rect {
	stroke: black;
    stroke-width: 0.75;
    fill: white;
}

.parallel-rect {
	stroke: black;
	stroke-width: 1;
	stroke-dasharray: 2,2;
	fill: white;
}

.history-rect {
	stroke: black;
	stroke-width: 3;
	stroke-dasharray: 12,2;
	fill: white;
}

.id-caption {
	font-weight: bold;
}

.transition line {
	stroke: black;
	stroke-width: 1;
}

.transition .initial circle {
	fill: black;
}

.transition .transition-event {
	font-size: 11px; 
}

.transition path.self-transition {
     stroke: black;
     stroke-width: 1;
     fill: none;
     stroke-linejoin: miter;
     stroke-linecap: butt;
}]]></style><g transform="translate(219.85392825704224,148.09790382922534)"><g class="state-group" transform="translate(-142.5433263644366,-25.597903829225352)"><rect class="state-rect" height="51.195807658450704" width="60.08665272887324" x="0.0" y="0.0"/><g transform="translate(30.04332636443662,30.597903829225352)"/><text class="id-caption" height="16.195807658450704" width="50.08665272887324" x="5.0" y="16.195807658450704">Lorem</text></g><g class="state-group" transform="translate(-30.000000000000007,-138.09790382922534)"><rect class="state-rect" height="51.195807658450704" width="60.0" x="0.0" y="0.0"/><g transform="translate(30.0,30.597903829225352)"/><text class="id-caption" height="16.195807658450704" width="48.518650968309856" x="5.0" y="16.195807658450704">Ipsum</text></g><g class="state-group" transform="translate(15.146071742957744,-25.597903829225366)"><rect class="state-rect" height="51.195807658450704" width="194.7078565140845" x="0.0" y="0.0"/><g transform="translate(97.35392825704226,30.597903829225352)"/><text class="id-caption" height="16.195807658450704" width="184.7078565140845" x="5.0" y="16.195807658450704">Dolor sit amet consectetur</text></g><g class="state-group" transform="translate(-48.04439920774646,86.90209617077466)"><rect class="final-rect" height="55.195807658450704" width="100.08879841549296" x="-2.0" y="-2.0"/><rect class="final-rect" height="51.195807658450704" width="96.08879841549296" x="0.0" y="0.0"/><g transform="translate(48.04439920774648,30.597903829225352)"/><text class="id-caption" height="16.195807658450704" width="86.08879841549296" x="5.0" y="16.195807658450704">Adipisci elit</text></g><g class="transition"><line x1="-118.5" x2="-31.000000000000007" y1="-26.597903829225352" y2="-106.5"/><polygon class="arrow-head" points="0,0 -4,-8 4,-8" transform="translate(-31.000000000000007,-106.5) rotate(227.59870860228477)"/><g x="-74.75" y="-66.54895191461267"><text class="transition-event" height="12.776692708333334" transform="translate(-74.75,-66.54895191461267) rotate(317.5987086022848) translate(-5.867513020833333,10)" width="11.735026041666666">a</text></g></g><g class="transition"><line x1="5.999999999999993" x2="118.5" y1="-85.90209617077466" y2="-26.597903829225366"/><polygon class="arrow-head" points="0,0 -4,-8 4,-8" transform="translate(118.5,-26.597903829225366) rotate(297.7958836192806)"/><g x="62.25" y="-56.250000000000014"><text class="transition-event" height="12.776692708333334" transform="translate(62.25,-56.250000000000014) rotate(27.795883619280573) translate(-5.867513020833333,10)" width="11.735026041666666">b</text></g></g><g class="transition"><line x1="5.999999999999993" x2="6.00000000000002" y1="-85.90209617077466" y2="85.90209617077466"/><polygon class="arrow-head" points="0,0 -4,-8 4,-8" transform="translate(6.00000000000002,85.90209617077466) rotate(360.0)"/><g x="6.000000000000007" y="0.0"><text class="transition-event" height="12.776692708333334" transform="translate(6.000000000000007,0.0) rotate(270.0) translate(-2.7777777777777777,10)" width="5.555555555555555"/></g></g><g class="transition"><line x1="14.146071742957744" x2="6.00000000000002" y1="-6.000000000000014" y2="85.90209617077466"/><polygon class="arrow-head" points="0,0 -4,-8 4,-8" transform="translate(6.00000000000002,85.90209617077466) rotate(365.06537860341945)"/><g x="10.073035871478883" y="39.95104808538732"><text class="transition-event" height="12.776692708333334" transform="translate(10.073035871478883,39.95104808538732) rotate(275.06537860341945) translate(-5.555555555555555,10)" width="11.11111111111111">c</text></g></g><g class="transition"><line x1="-5.99999999999998" x2="-81.45667363556338" y1="85.90209617077466" y2="-6.0"/><polygon class="arrow-head" points="0,0 -4,-8 4,-8" transform="translate(-81.45667363556338,-6.0) rotate(140.6121228928886)"/><g x="-43.72833681778168" y="39.95104808538733"><text class="transition-event" height="12.776692708333334" transform="translate(-43.72833681778168,39.95104808538733) rotate(50.612122892888614) translate(-5.867513020833333,10)" width="11.735026041666666">d</text></g></g></g></svg>