<svg xmlns="http://www.w3.org/2000/svg" height="221.1958076584507" width="364.7078565140845"><style type="text/css"><![CDATA[svg {
	font-family: Arial;
	font-size: 14px;
}

.state-rect {
    stroke: black;
    stroke-width: 1;
    fill: white;
}

.final-rect {
	stroke: black;
    stroke-width: 0.75;
    fill: white;
}

.parallel-rect {
	stroke: black;
	stroke-width: 1;
	stroke-dasharray: 2,2;
	fill: white;
}

.history-rect {
	stroke: black;
	stroke-width: 3;
	stroke-dasharray: 12,2;
	fill: white;
}

.id-caption {
	font-weight: bold;
}

.transition line {
	stroke: black;
	stroke-width: 1;
}

.transition .initial circle {
	fill: black;
}

.transition .transition-event {
	font-size: 11px; 
}

.transition path.self-transition {
     stroke: black;
     stroke-width: 1;
     fill: none;
     stroke-linejoin: miter;
     stroke-linecap: butt;
}]]></style><g transform="translate(182.35392825704224,110.59790382922534)"><g class="state-group" transform="translate(-105.04332636443662,-25.597903829225352)"><rect class="state-rect" height="51.195807658450704" width="60.08665272887324" x="0.0" y="0.0"/><g transform="translate(30.04332636443662,30.597903829225352)"/><text class="id-caption" height="16.195807658450704" width="50.08665272887324" x="5.0" y="16.195807658450704">Lorem</text></g><g class="state-group" transform="translate(-30.000000000000004,-100.59790382922534)"><rect class="state-rect" height="51.195807658450704" width="60.0" x="0.0" y="0.0"/><g transform="translate(30.0,30.597903829225352)"/><text class="id-caption" height="16.195807658450704" width="48.518650968309856" x="5.0" y="16.195807658450704">Ipsum</text></g><g class="state-group" transform="translate(-22.353928257042256,-25.597903829225363)"><rect class="state-rect" height="51.195807658450704" width="194.7078565140845" x="0.0" y="0.0"/><g transform="translate(97.35392825704226,30.597903829225352)"/><text class="id-caption" height="16.195807658450704" width="184.7078565140845" x="5.0" y="16.195807658450704">Dolor sit amet consectetur</text></g><g class="state-group" transform="translate(-48.044399207746466,49.40209617077465)"><rect class="final-rect" height="55.195807658450704" width="100.08879841549296" x="-2.0" y="-2.0"/><rect class="final-rect" height="51.195807658450704" width="96.08879841549296" x="0.0" y="0.0"/><g transform="translate(48.04439920774648,30.597903829225352)"/><text class="id-caption" height="16.195807658450704" width="86.08879841549296" x="5.0" y="16.195807658450704">Adipisci elit</text></g><g class="transition"><line x1="-81.0" x2="-31.000000000000004" y1="-26.597903829225352" y2="-69.0"/><polygon class="arrow-head" points="0,0 -4,-8 4,-8" transform="translate(-31.000000000000004,-69.0) rotate(229.70065819249305)"/><g x="-56.0" y="-47.79895191461267"><text class="transition-event" height="12.776692708333334" transform="translate(-56.0,-47.79895191461267) rotate(319.70065819249305) translate(-5.867513020833333,10)" width="11.735026041666666">a</text></g></g><g xmlns="http://www.w3.org/2000/svg" class="transition"><line x1="5.999999999999996" x2="81.0" y1="-48.40209617077465" y2="-26.597903829225363"/><polygon class="arrow-head" points="0,0 -4,-8 4,-8" transform="translate(81.0,-26.597903829225363) rotate(286.2103398964001)"/><g x="43.5" y="-37.50000000000001"><text class="transition-event" height="12.776692708333334" transform="translate(43.5,-37.50000000000001) rotate(16.210339896400114) translate(-5.867513020833333,10)" width="11.735026041666666">b</text></g></g>
<g xmlns="http://www.w3.org/2000/svg" class="transition"><line x1="5.999999999999996" x2="5" y1="-48.40209617077465" y2="48.4" style="stroke: red"/><polygon class="arrow-head" points="0,0 -4,-8 4,-8" transform="translate(5,48.4) rotate(0)" stroke="none" fill="red"/></g><g class="transition"><line x1="81.0" x2="49.044399207746494" y1="26.59790382922534" y2="69.0"/><polygon class="arrow-head" points="0,0 -4,-8 4,-8" transform="translate(49.044399207746494,69.0) rotate(397.0028694182259)"/><g x="65.02219960387325" y="47.79895191461267"><text class="transition-event" height="12.776692708333334" transform="translate(65.02219960387325,47.79895191461267) rotate(307.0028694182259) translate(-5.555555555555555,10)" width="11.11111111111111">c</text></g></g><g class="transition"><line x1="-5.999999999999986" x2="-81.0" y1="48.40209617077465" y2="26.597903829225352"/><polygon class="arrow-head" points="0,0 -4,-8 4,-8" transform="translate(-81.0,26.597903829225352) rotate(106.21033989640016)"/><g x="-43.49999999999999" y="37.5"><text class="transition-event" height="12.776692708333334" transform="translate(-43.49999999999999,37.5) rotate(16.210339896400153) translate(-5.867513020833333,10)" width="11.735026041666666">d</text></g></g></g></svg>